# xmcd CD database file
#
# Track frame offsets:
#	150
#	12047
#	26690
#	38532
#	50117
#	66282
#	85495
#	99420
#	110717
#	127305
#	140265
#	151437
#	167055
#	181027
#	193970
#	211909
#	226650
#	240325
#	250970
#	265762
#	279840
#	291797
#	305160
#
# Disc length: 4238 seconds
#
# Revision: 0
# Processed by: cddbd v1.5.2PL0 Copyright (c) Steve Scherf et al.
# Submitted via: CDex 1.70beta2
#
DISCID=45108c17
DTITLE=Jones Classic Country - Jones Classic Country CCC-621
DYEAR=0000
DGENRE=Country
TTITLE0=Eddie Rabbitt/Hearts Of Fire
TTITLE1=Eddie Rabbitt/I Can't Help Myself
TTITLE2=Marty Robbins/A White Sport Coat (And A Pink Carnation)
TTITLE3=Marty Robbins/Singing The Blues
TTITLE4=T G Sheppard/I Loved 'Em Everyone
TTITLE5=T G Sheppard/Slow Burn
TTITLE6=Ricky Skaggs/I Wouldn't Change You If I Could
TTITLE7=Ricky Skaggs/Uncle Pen
TTITLE8=Cal Smith/Country Bumpkin
TTITLE9=Hank Snow/I've Been Everywhere
TTITLE10=Statler Brothers/Oh Baby Mine (I Get So Lonely)
TTITLE11=George Strait/Cowboy Rides Away
TTITLE12=Tanya Tucker/Lizzie And The Rain Man
TTITLE13=Conway Twitty/I May Never Get To Heaven
TTITLE14=Conway Twitty/Somebody's Needin' Somebody
TTITLE15=Steve Wariner/Life's Highway
TTITLE16=Dottie West/A Lesson In Leavin'
TTITLE17=Don Williams/(Turn Out The Light) And Love Me Tonight
TTITLE18=Don Williams/Back In My Younger Days
TTITLE19=Don Williams/I'm Just A Country Boy
TTITLE20=Don Williams/I've Got A Winner In You
TTITLE21=Don Williams/Lay Down Beside Me
TTITLE22=Don Williams/Rake And Ramblin' Man
EXTD=YEAR: 0000
EXTT0=
EXTT1=
EXTT2=
EXTT3=
EXTT4=
EXTT5=
EXTT6=
EXTT7=
EXTT8=
EXTT9=
EXTT10=
EXTT11=
EXTT12=
EXTT13=
EXTT14=
EXTT15=
EXTT16=
EXTT17=
EXTT18=
EXTT19=
EXTT20=
EXTT21=
EXTT22=
PLAYORDER=
